<svg width="136" height="25" viewBox="0 0 136 25" fill="none" xmlns="http://www.w3.org/2000/svg">
<path d="M18.5169 22.6493L18.1587 20.9776C17.4207 17.5332 16.0683 14.2964 14.1387 11.3529V8.64058C15.0275 7.97178 15.6035 6.9084 15.6035 5.71289V4.24805C15.6035 3.84355 15.2756 3.51562 14.8711 3.51562H14.1387V0.732422C14.1387 0.32793 13.8107 0 13.4062 0C13.0018 0 12.6738 0.32793 12.6738 0.732422V3.52339C11.3584 3.6001 10.2059 4.29209 9.5 5.31528C8.79409 4.29209 7.6416 3.6001 6.32617 3.52339V0.732422C6.32617 0.32793 5.99824 0 5.59375 0C5.18926 0 4.86133 0.32793 4.86133 0.732422V3.51562H4.1289C3.72441 3.51562 3.39648 3.84355 3.39648 4.24805V5.71289C3.39648 6.9084 3.97246 7.97178 4.86133 8.64058V11.3529C2.93174 14.2964 1.57934 17.5332 0.841256 20.9776L0.483053 22.6493C0.406491 23.0066 0.605074 23.3658 0.948532 23.4909C3.69741 24.4923 6.57451 25 9.5 25C12.4255 25 15.3026 24.4923 18.0515 23.4909C18.3949 23.3658 18.5935 23.0067 18.5169 22.6493ZM12.918 4.98047H14.1387V5.71289C14.1387 6.92446 13.153 7.91016 11.9414 7.91016H10.2324V7.66602C10.2324 6.1852 11.4372 4.98047 12.918 4.98047ZM4.86133 4.98047H6.08203C7.56284 4.98047 8.76758 6.1852 8.76758 7.66602V7.91016H7.05859C5.84702 7.91016 4.86133 6.92446 4.86133 5.71289V4.98047ZM7.05859 9.375H11.9414C12.1922 9.375 12.4371 9.34956 12.6738 9.30132V10.8398H6.32617V9.30132C6.56289 9.34956 6.80781 9.375 7.05859 9.375ZM9.5 23.5352C6.95849 23.5352 4.45561 23.128 2.05073 22.3244L2.27353 21.2846C2.96118 18.0757 4.21054 15.0566 5.98901 12.3047L13.0109 12.3047C14.7894 15.0566 16.0388 18.0757 16.7264 21.2845L16.9492 22.3244C14.5444 23.128 12.0415 23.5352 9.5 23.5352Z" fill="black"/>
<path d="M38.52 6.704H39.88L41.384 10.656L42.904 6.704H44.264L42.296 11.648L44.248 16.336L48.088 6.64H49.656L44.904 18H43.656L41.4 12.64L39.128 18H37.88L33.144 6.64H34.696L38.552 16.336L40.488 11.648L38.52 6.704ZM56.9274 18.08C56.1274 18.08 55.402 17.92 54.7514 17.6C54.1007 17.28 53.5354 16.848 53.0554 16.304C52.586 15.7493 52.2234 15.1307 51.9674 14.448C51.7114 13.7547 51.5834 13.0453 51.5834 12.32C51.5834 11.5627 51.7167 10.8427 51.9834 10.16C52.2607 9.46667 52.6394 8.85333 53.1194 8.32C53.61 7.776 54.1807 7.34933 54.8314 7.04C55.482 6.72 56.1914 6.56 56.9594 6.56C57.7594 6.56 58.4847 6.72533 59.1354 7.056C59.786 7.38667 60.346 7.82933 60.8154 8.384C61.2847 8.93867 61.6474 9.55733 61.9034 10.24C62.1594 10.9227 62.2874 11.6213 62.2874 12.336C62.2874 13.0933 62.154 13.8187 61.8874 14.512C61.6207 15.1947 61.242 15.808 60.7514 16.352C60.2714 16.8853 59.706 17.3067 59.0554 17.616C58.4047 17.9253 57.6954 18.08 56.9274 18.08ZM53.0394 12.32C53.0394 12.896 53.13 13.456 53.3114 14C53.5034 14.5333 53.77 15.008 54.1114 15.424C54.4527 15.84 54.8634 16.1707 55.3434 16.416C55.8234 16.6613 56.3567 16.784 56.9434 16.784C57.5514 16.784 58.0954 16.656 58.5754 16.4C59.0554 16.144 59.4607 15.8027 59.7914 15.376C60.1327 14.9493 60.3887 14.4693 60.5594 13.936C60.7407 13.4027 60.8314 12.864 60.8314 12.32C60.8314 11.744 60.7354 11.1893 60.5434 10.656C60.362 10.1227 60.0954 9.648 59.7434 9.232C59.402 8.80533 58.9914 8.47467 58.5114 8.24C58.042 7.99467 57.5194 7.872 56.9434 7.872C56.3354 7.872 55.7914 8 55.3114 8.256C54.8314 8.50133 54.4207 8.83733 54.0794 9.264C53.7487 9.69067 53.4927 10.1707 53.3114 10.704C53.13 11.2267 53.0394 11.7653 53.0394 12.32ZM75.7121 18V9.328L71.9681 16H71.0881L67.3281 9.328V18H65.8881V6.64H67.4081L71.5201 14.016L75.6481 6.64H77.1521V18H75.7121ZM84.9285 6.64H86.1445L90.7845 18H89.2485L87.9045 14.672H83.1365L81.8085 18H80.2725L84.9285 6.64ZM87.5845 13.552L85.5365 8.304L83.4245 13.552H87.5845ZM93.0526 16.88L100.381 7.92H93.1966V6.64H102.061V7.76L94.8606 16.72H102.061V18H93.0526V16.88ZM105.594 18V6.64H107.034V18H105.594ZM112.791 9.296V18H111.351V6.64H112.567L119.511 15.52V6.656H120.951V18H119.639L112.791 9.296ZM129.823 18.08C129.076 18.08 128.378 17.92 127.727 17.6C127.087 17.2693 126.527 16.832 126.047 16.288C125.567 15.7333 125.194 15.1147 124.927 14.432C124.66 13.7387 124.527 13.024 124.527 12.288C124.527 11.52 124.66 10.7947 124.927 10.112C125.194 9.41867 125.562 8.80533 126.031 8.272C126.511 7.73867 127.071 7.32267 127.711 7.024C128.362 6.71467 129.066 6.56 129.823 6.56C130.922 6.56 131.828 6.78933 132.543 7.248C133.258 7.70667 133.796 8.304 134.159 9.04L133.055 9.808C132.724 9.14667 132.271 8.656 131.695 8.336C131.119 8.016 130.484 7.856 129.791 7.856C129.215 7.856 128.692 7.97867 128.223 8.224C127.754 8.46933 127.348 8.80533 127.007 9.232C126.676 9.648 126.42 10.1227 126.239 10.656C126.068 11.1893 125.983 11.744 125.983 12.32C125.983 12.928 126.079 13.504 126.271 14.048C126.474 14.5813 126.756 15.056 127.119 15.472C127.482 15.8773 127.903 16.1973 128.383 16.432C128.863 16.6667 129.38 16.784 129.935 16.784C130.586 16.784 131.204 16.6187 131.791 16.288C132.378 15.9573 132.932 15.4507 133.455 14.768V16.256C132.431 17.472 131.22 18.08 129.823 18.08ZM133.279 13.424H130.831V12.336H134.495V18H133.279V13.424Z" fill="black"/>
</svg>
